<mxfile host="app.diagrams.net" modified="2024-01-27T01:49:00.431Z" agent="Mozilla/5.0 (Windows NT 10.0; Win64; x64) AppleWebKit/537.36 (KHTML, like Gecko) Chrome/121.0.0.0 Safari/537.36" etag="kd-nyB2i49QNca6N7-lt" version="23.0.2" type="device">
  <diagram name="Seite-1" id="o1Sh8dqupD5nippvTFUM">
    <mxGraphModel dx="1434" dy="754" grid="1" gridSize="10" guides="1" tooltips="1" connect="1" arrows="1" fold="1" page="1" pageScale="1" pageWidth="1169" pageHeight="827" math="0" shadow="0">
      <root>
        <mxCell id="0" />
        <mxCell id="1" parent="0" />
        <mxCell id="giKlB1GgNLeQC6wwkSCg-1" style="edgeStyle=orthogonalEdgeStyle;rounded=0;orthogonalLoop=1;jettySize=auto;html=1;exitX=0.5;exitY=1;exitDx=0;exitDy=0;exitPerimeter=0;entryX=0.5;entryY=0;entryDx=0;entryDy=0;curved=1;" edge="1" parent="1" source="giKlB1GgNLeQC6wwkSCg-2" target="giKlB1GgNLeQC6wwkSCg-9">
          <mxGeometry relative="1" as="geometry" />
        </mxCell>
        <mxCell id="giKlB1GgNLeQC6wwkSCg-2" value="&lt;font style=&quot;font-size: 16px;&quot;&gt;rotate.c&lt;/font&gt;" style="shape=note;whiteSpace=wrap;html=1;backgroundOutline=1;darkOpacity=0.05;fillColor=#dae8fc;strokeColor=#6c8ebf;" vertex="1" parent="1">
          <mxGeometry x="410" y="237" width="70" height="90" as="geometry" />
        </mxCell>
        <mxCell id="giKlB1GgNLeQC6wwkSCg-3" style="edgeStyle=orthogonalEdgeStyle;rounded=0;orthogonalLoop=1;jettySize=auto;html=1;exitX=0.5;exitY=1;exitDx=0;exitDy=0;exitPerimeter=0;entryX=0.5;entryY=0;entryDx=0;entryDy=0;curved=1;" edge="1" parent="1" source="giKlB1GgNLeQC6wwkSCg-4" target="giKlB1GgNLeQC6wwkSCg-9">
          <mxGeometry relative="1" as="geometry" />
        </mxCell>
        <mxCell id="giKlB1GgNLeQC6wwkSCg-4" value="&lt;font style=&quot;font-size: 16px;&quot;&gt;rotate.h&lt;/font&gt;" style="shape=note;whiteSpace=wrap;html=1;backgroundOutline=1;darkOpacity=0.05;fillColor=#dae8fc;strokeColor=#6c8ebf;" vertex="1" parent="1">
          <mxGeometry x="580" y="237" width="70" height="90" as="geometry" />
        </mxCell>
        <mxCell id="giKlB1GgNLeQC6wwkSCg-5" value="" style="rounded=0;whiteSpace=wrap;html=1;fillColor=none;" vertex="1" parent="1">
          <mxGeometry x="350" y="120" width="370" height="420" as="geometry" />
        </mxCell>
        <mxCell id="giKlB1GgNLeQC6wwkSCg-6" style="edgeStyle=orthogonalEdgeStyle;rounded=0;orthogonalLoop=1;jettySize=auto;html=1;exitX=0.5;exitY=1;exitDx=0;exitDy=0;" edge="1" parent="1" source="giKlB1GgNLeQC6wwkSCg-5" target="giKlB1GgNLeQC6wwkSCg-5">
          <mxGeometry relative="1" as="geometry" />
        </mxCell>
        <mxCell id="giKlB1GgNLeQC6wwkSCg-7" value="&lt;h1&gt;Rotate-Module (C)&lt;/h1&gt;" style="text;html=1;strokeColor=none;fillColor=none;spacing=5;spacingTop=-20;whiteSpace=wrap;overflow=hidden;rounded=0;" vertex="1" parent="1">
          <mxGeometry x="430" y="130" width="240" height="40" as="geometry" />
        </mxCell>
        <mxCell id="giKlB1GgNLeQC6wwkSCg-8" value="" style="endArrow=none;html=1;rounded=0;entryX=0.996;entryY=0.14;entryDx=0;entryDy=0;entryPerimeter=0;" edge="1" parent="1">
          <mxGeometry width="50" height="50" relative="1" as="geometry">
            <mxPoint x="351.48" y="180" as="sourcePoint" />
            <mxPoint x="720" y="180" as="targetPoint" />
          </mxGeometry>
        </mxCell>
        <mxCell id="giKlB1GgNLeQC6wwkSCg-9" value="Functions" style="swimlane;fontStyle=0;childLayout=stackLayout;horizontal=1;startSize=30;horizontalStack=0;resizeParent=1;resizeParentMax=0;resizeLast=0;collapsible=1;marginBottom=0;whiteSpace=wrap;html=1;" vertex="1" parent="1">
          <mxGeometry x="460" y="387" width="140" height="120" as="geometry" />
        </mxCell>
        <mxCell id="giKlB1GgNLeQC6wwkSCg-10" value="rotateX()" style="text;strokeColor=none;fillColor=none;align=left;verticalAlign=middle;spacingLeft=4;spacingRight=4;overflow=hidden;points=[[0,0.5],[1,0.5]];portConstraint=eastwest;rotatable=0;whiteSpace=wrap;html=1;" vertex="1" parent="giKlB1GgNLeQC6wwkSCg-9">
          <mxGeometry y="30" width="140" height="30" as="geometry" />
        </mxCell>
        <mxCell id="giKlB1GgNLeQC6wwkSCg-11" value="rotateY()" style="text;strokeColor=none;fillColor=none;align=left;verticalAlign=middle;spacingLeft=4;spacingRight=4;overflow=hidden;points=[[0,0.5],[1,0.5]];portConstraint=eastwest;rotatable=0;whiteSpace=wrap;html=1;" vertex="1" parent="giKlB1GgNLeQC6wwkSCg-9">
          <mxGeometry y="60" width="140" height="30" as="geometry" />
        </mxCell>
        <mxCell id="giKlB1GgNLeQC6wwkSCg-12" value="rotateXY()" style="text;strokeColor=none;fillColor=none;align=left;verticalAlign=middle;spacingLeft=4;spacingRight=4;overflow=hidden;points=[[0,0.5],[1,0.5]];portConstraint=eastwest;rotatable=0;whiteSpace=wrap;html=1;" vertex="1" parent="giKlB1GgNLeQC6wwkSCg-9">
          <mxGeometry y="90" width="140" height="30" as="geometry" />
        </mxCell>
        <mxCell id="giKlB1GgNLeQC6wwkSCg-13" style="edgeStyle=orthogonalEdgeStyle;rounded=0;orthogonalLoop=1;jettySize=auto;html=1;exitX=0.5;exitY=1;exitDx=0;exitDy=0;" edge="1" parent="1" source="giKlB1GgNLeQC6wwkSCg-5" target="giKlB1GgNLeQC6wwkSCg-5">
          <mxGeometry relative="1" as="geometry" />
        </mxCell>
      </root>
    </mxGraphModel>
  </diagram>
</mxfile>
